# xmcd CD database file
#
# Track frame offsets:
#	150
#	13787
#	26561
#	40227
#	58503
#	76395
#	90450
#	107997
#	121668
#	134853
#	153122
#	167057
#
# Disc length: 2520 seconds
#
# Revision: 1
# Processed by: cddbd v1.5.2PL0 Copyright (c) Steve Scherf et al.
# Submitted via: CDex 1.79
#
DISCID=9309d60c
DTITLE=Tish Hinojosa - A Heart Wide Open
DYEAR=2005
DGENRE=Country
TTITLE0=Never Say Never Love Again (featuring Ray Benson)
TTITLE1=Would You Love Me Back Again
TTITLE2=Whatever Happened To Everyone Wanting To Care
TTITLE3=The Kitchen Table
TTITLE4=Blue Eyed Billy
TTITLE5=Finding Paris
TTITLE6=The Poet The Painter
TTITLE7=Derechos De El Corazon
TTITLE8=Lock And Chain
TTITLE9=Shotgun Ridin'
TTITLE10=Something More Than This
TTITLE11=A Thousand Shades Of Red And Blue
EXTD=YEAR: 2005
EXTT0=
EXTT1=
EXTT2=
EXTT3=
EXTT4=
EXTT5=
EXTT6=
EXTT7=
EXTT8=
EXTT9=
EXTT10=
EXTT11=
PLAYORDER=
